<?xml version="1.0" encoding="UTF-8" standalone="no"?>
<!-- Created with Inkscape (http://www.inkscape.org/) -->

<svg
   xmlns:dc="http://purl.org/dc/elements/1.1/"
   xmlns:cc="http://creativecommons.org/ns#"
   xmlns:rdf="http://www.w3.org/1999/02/22-rdf-syntax-ns#"
   xmlns:svg="http://www.w3.org/2000/svg"
   xmlns="http://www.w3.org/2000/svg"
   xmlns:sodipodi="http://sodipodi.sourceforge.net/DTD/sodipodi-0.dtd"
   xmlns:inkscape="http://www.inkscape.org/namespaces/inkscape"
   width="282"
   height="184"
   viewBox="0 0 281.99999 183.99999"
   id="svg4329"
   version="1.1"
   inkscape:version="0.91 r13725"
   sodipodi:docname="pagon hr.svg">
  <defs
     id="defs4331" />
  <sodipodi:namedview
     id="base"
     pagecolor="#ffffff"
     bordercolor="#666666"
     borderopacity="1.0"
     inkscape:pageopacity="0.0"
     inkscape:pageshadow="2"
     inkscape:zoom="1.0163043"
     inkscape:cx="213.35611"
     inkscape:cy="-79.899257"
     inkscape:document-units="px"
     inkscape:current-layer="layer1"
     showgrid="true"
     units="px"
     inkscape:snap-grids="false"
     inkscape:window-width="1920"
     inkscape:window-height="1001"
     inkscape:window-x="-9"
     inkscape:window-y="-9"
     inkscape:window-maximized="1"
     showborder="false">
    <inkscape:grid
       type="xygrid"
       id="grid4908" />
  </sodipodi:namedview>
  <metadata
     id="metadata4334">
    <rdf:RDF>
      <cc:Work
         rdf:about="">
        <dc:format>image/svg+xml</dc:format>
        <dc:type
           rdf:resource="http://purl.org/dc/dcmitype/StillImage" />
        <dc:title></dc:title>
      </cc:Work>
    </rdf:RDF>
  </metadata>
  <g
     inkscape:label="Layer 1"
     inkscape:groupmode="layer"
     id="layer1"
     transform="translate(0,-868.3622)">
    <rect
       style="opacity:1;fill:#000000;fill-opacity:0.98039216;stroke:none;stroke-width:1;stroke-linecap:round;stroke-linejoin:round;stroke-miterlimit:4;stroke-dasharray:none;stroke-dashoffset:0;stroke-opacity:0.98514847"
       id="rect4877"
       width="282"
       height="184"
       x="0"
       y="868.36218" />
    <path
       sodipodi:type="star"
       style="opacity:1;fill:#ffffff;fill-opacity:0.98039216;stroke:none;stroke-width:1;stroke-linecap:round;stroke-linejoin:round;stroke-miterlimit:4;stroke-dasharray:none;stroke-dashoffset:0;stroke-opacity:0.98514847"
       id="path4314"
       sodipodi:sides="5"
       sodipodi:cx="24.285713"
       sodipodi:cy="1026.4694"
       sodipodi:r1="9.7579117"
       sodipodi:r2="5.6595888"
       sodipodi:arg1="0.52359878"
       sodipodi:arg2="1.1519173"
       inkscape:flatsided="false"
       inkscape:rounded="0.12"
       inkscape:randomized="0"
       d="m 32.736313,1031.3483 c -0.369333,0.6397 -5.473834,-0.01 -6.148638,0.2914 -0.674803,0.3004 -3.608223,4.5279 -4.330746,4.3743 -0.722522,-0.1535 -1.682847,-5.2087 -2.17711,-5.7576 -0.494263,-0.549 -5.421351,-2.0324 -5.498563,-2.7671 -0.07721,-0.7346 4.433777,-3.21 4.803109,-3.8497 0.369333,-0.6397 0.257645,-5.7841 0.932448,-6.0845 0.674803,-0.3005 4.423072,3.2248 5.145595,3.3783 0.722523,0.1536 5.580584,-1.5423 6.074847,-0.9934 0.494263,0.549 -1.700168,5.2032 -1.622957,5.9378 0.07721,0.7346 3.191347,4.8308 2.822015,5.4705 z"
       inkscape:transform-center-x="2.0766203"
       inkscape:transform-center-y="-0.14702549"
       transform="matrix(2.3496375,0.27884537,-0.27884537,2.3496375,272.66481,-1493.1471)" />
    <path
       transform="matrix(2.3496375,0.27884537,-0.27884537,2.3496375,272.66481,-1423.1471)"
       inkscape:transform-center-y="-0.14702549"
       inkscape:transform-center-x="2.0766203"
       d="m 32.736313,1031.3483 c -0.369333,0.6397 -5.473834,-0.01 -6.148638,0.2914 -0.674803,0.3004 -3.608223,4.5279 -4.330746,4.3743 -0.722522,-0.1535 -1.682847,-5.2087 -2.17711,-5.7576 -0.494263,-0.549 -5.421351,-2.0324 -5.498563,-2.7671 -0.07721,-0.7346 4.433777,-3.21 4.803109,-3.8497 0.369333,-0.6397 0.257645,-5.7841 0.932448,-6.0845 0.674803,-0.3005 4.423072,3.2248 5.145595,3.3783 0.722523,0.1536 5.580584,-1.5423 6.074847,-0.9934 0.494263,0.549 -1.700168,5.2032 -1.622957,5.9378 0.07721,0.7346 3.191347,4.8308 2.822015,5.4705 z"
       inkscape:randomized="0"
       inkscape:rounded="0.12"
       inkscape:flatsided="false"
       sodipodi:arg2="1.1519173"
       sodipodi:arg1="0.52359878"
       sodipodi:r2="5.6595888"
       sodipodi:r1="9.7579117"
       sodipodi:cy="1026.4694"
       sodipodi:cx="24.285713"
       sodipodi:sides="5"
       id="path4316"
       style="opacity:1;fill:#ffffff;fill-opacity:0.98039216;stroke:none;stroke-width:1;stroke-linecap:round;stroke-linejoin:round;stroke-miterlimit:4;stroke-dasharray:none;stroke-dashoffset:0;stroke-opacity:0.98514847"
       sodipodi:type="star" />
  </g>
</svg>
