<?xml version="1.0" encoding="iso-8859-1"?>
<!-- Generator: Adobe Illustrator 19.0.0, SVG Export Plug-In . SVG Version: 6.00 Build 0)  -->
<svg version="1.1" id="Capa_1" xmlns="http://www.w3.org/2000/svg" xmlns:xlink="http://www.w3.org/1999/xlink" x="0px" y="0px"
	 viewBox="0 0 511.999 511.999" style="enable-background:new 0 0 511.999 511.999;" xml:space="preserve">
<path style="fill:#E8EAE9;" d="M499.497,381.89H12.5c-2.761,0-5-2.239-5-5v-46.481h496.997v46.481
	C504.497,379.651,502.258,381.89,499.497,381.89z"/>
<path style="fill:#D6D4D4;" d="M498.995,381.89h-46.481v-51.481h51.481v46.481C503.995,379.651,501.757,381.89,498.995,381.89z"/>
<path style="fill:#9DD74E;" d="M173.096,131.516c2.361-2.29,6.234-1.702,7.847,1.165
	c66.164,117.595,229.864,121.163,229.864,121.163c101.148,2.183,93.561,76.565,93.561,76.565H7.5V169.586
	c0-3.191,2.941-5.569,6.058-4.886c21.326,4.668,94.341,17.058,144.451-18.555L173.096,131.516z"/>
<path style="fill:#80C11A;" d="M504.367,330.408l-51.852,0.001c-9.11-22.28-12.598-48.411-73.708-49.731
	c0,0-168.69-3.68-240.87-123.16c6.96-3.09,13.7-6.84,20.07-11.37l15.086-14.629c2.361-2.29,6.233-1.702,7.847,1.165
	c66.169,117.59,229.868,121.164,229.868,121.164C511.957,256.028,504.367,330.408,504.367,330.408z"/>
<path d="M493.402,277.161c-17.357-19.641-45.092-30.009-82.432-30.814c-0.398-0.009-40.399-1.043-88.019-16.135
	c-6.936-2.198-14.26-4.779-21.804-7.794l0.835-1.37c2.137-3.506,1.3-8.21-2.14-10.452c-3.56-2.32-8.308-1.226-10.505,2.376
	l-2.112,3.464c-9.027-4.156-18.215-8.954-27.307-14.492l1.202-1.206c2.898-2.907,3.186-7.676,0.367-10.661
	c-2.918-3.09-7.79-3.141-10.769-0.15l-3.628,3.639c-7.297-5.109-14.44-10.748-21.298-16.952c2.457-2.893,2.421-7.307-0.422-10.159
	c-2.758-2.767-7.248-2.798-10.262-0.313l-0.032,0.026c-10.305-10.819-19.699-23.127-27.597-37.164
	c-2.038-3.623-5.651-5.971-9.824-6.347c-3.703-0.333-7.347,1.114-10.016,3.702l-14.434,13.995
	c-18.181,12.77-41.574,20.25-69.539,22.236c-4.132,0.294-7.243,3.881-6.95,8.013c0.292,4.132,3.883,7.235,8.012,6.95
	c18.538-1.317,35.317-4.91,50.214-10.692c45.327,70.167,122.782,100.017,180.501,112.699c0.542,0.119,1.083,0.177,1.616,0.177
	c3.505,0,6.656-2.472,7.356-6.076c0.784-4.035-1.997-7.924-6.011-8.808c-11.649-2.567-24.133-5.864-36.978-10.088l11.795-19.349
	c8.12,3.305,16.52,6.343,25.197,9.093c29.906,9.478,56.617,13.63,73.511,15.443v62.956H15v-12.307h17.285
	c2.612,0,4.944-1.91,5.191-4.51c0.284-2.982-2.054-5.49-4.977-5.49H15V172.67c4.039,0.825,9.482,1.827,15.898,2.736
	c3.776,0.535,7.521-1.726,8.512-5.409c1.197-4.446-1.775-8.79-6.188-9.412c-7.631-1.074-13.799-2.287-17.727-3.14
	c-3.489-0.758-7.189-0.175-10.119,1.865C1.974,161.679,0,165.485,0,169.586v160.822v53.981c0,2.761,2.239,5,5,5h413.685
	c4.107,0,7.688-3.165,7.811-7.27c0.127-4.247-3.278-7.73-7.497-7.73H20c-2.761,0-5-2.239-5-5v-5.741h359.183
	c4.107,0,7.688-3.165,7.811-7.27c0.127-4.247-3.278-7.73-7.497-7.73H15v-10.74h481.997v31.481c0,2.761-2.239,5-5,5H472.98
	c-4.107,0-7.688,3.165-7.811,7.27c-0.127,4.247,3.278,7.73,7.497,7.73h34.331c2.761,0,5-2.239,5-5v-53.981
	c0-0.299-0.022-0.592-0.056-0.882C512.247,322.945,512.009,298.214,493.402,277.161z M216.039,224.735
	c-8.905-5.537-17.598-11.695-25.921-18.548l24.017-19.801c6.884,6.369,14.263,12.387,22.139,18.029l-20.022,20.084
	C216.176,224.575,216.111,224.657,216.039,224.735z M148.756,160.583c4.768-2.514,9.312-5.279,13.598-8.325
	c0.31-0.221,0.603-0.464,0.876-0.729l12.773-12.386c7.67,13.133,16.837,25.365,27.42,36.633l-23.269,19.185
	c-0.486,0.401-0.901,0.854-1.259,1.339C167.84,185.862,157.65,174.017,148.756,160.583z M266.973,249.658
	c-12.483-4.729-25.135-10.379-37.545-17.13l19.536-19.596c9.524,5.973,19.672,11.454,30.378,16.436L266.973,249.658z
	 M406.931,322.909V261.19c2.157,0.114,3.439,0.147,3.714,0.153c32.865,0.71,56.875,9.315,71.365,25.579
	c11.369,12.761,14.192,27.581,14.816,35.987L406.931,322.909L406.931,322.909z"/>
<path d="M382.5,310.602c2.762,0,5-2.238,5-5s-2.238-5-5-5h-25c-2.762,0-5,2.238-5,5s2.238,5,5,5H382.5z"/>
<path d="M57.5,310.602h25c2.761,0,5-2.238,5-5s-2.239-5-5-5h-25c-2.761,0-5,2.238-5,5S54.739,310.602,57.5,310.602z"/>
<path d="M232.5,310.602c2.761,0,5-2.238,5-5s-2.239-5-5-5h-25c-2.761,0-5,2.238-5,5s2.239,5,5,5H232.5z"/>
<path d="M332.5,310.602c2.762,0,5-2.238,5-5s-2.238-5-5-5h-25c-2.762,0-5,2.238-5,5s2.238,5,5,5H332.5z"/>
<path d="M282.5,310.602c2.762,0,5-2.238,5-5s-2.238-5-5-5h-25c-2.761,0-5,2.238-5,5s2.239,5,5,5H282.5z"/>
<path d="M182.5,310.602c2.761,0,5-2.238,5-5s-2.239-5-5-5h-25c-2.761,0-5,2.238-5,5s2.239,5,5,5H182.5z"/>
<path d="M132.5,310.602c2.761,0,5-2.238,5-5s-2.239-5-5-5h-25c-2.761,0-5,2.238-5,5s2.239,5,5,5H132.5z"/>
<g>
</g>
<g>
</g>
<g>
</g>
<g>
</g>
<g>
</g>
<g>
</g>
<g>
</g>
<g>
</g>
<g>
</g>
<g>
</g>
<g>
</g>
<g>
</g>
<g>
</g>
<g>
</g>
<g>
</g>
</svg>
